<svg width="235" height="91" viewBox="0 0 235 91" fill="none" xmlns="http://www.w3.org/2000/svg">
<path d="M3.86364 76V41.0909H13.0909V47.25H13.5C14.2273 45.2045 15.4394 43.5909 17.1364 42.4091C18.8333 41.2273 20.8636 40.6364 23.2273 40.6364C25.6212 40.6364 27.6591 41.2348 29.3409 42.4318C31.0227 43.6136 32.1439 45.2197 32.7045 47.25H33.0682C33.7803 45.25 35.0682 43.6515 36.9318 42.4545C38.8106 41.2424 41.0303 40.6364 43.5909 40.6364C46.8485 40.6364 49.4924 41.6742 51.5227 43.75C53.5682 45.8106 54.5909 48.7348 54.5909 52.5227V76H44.9318V54.4318C44.9318 52.4924 44.4167 51.0379 43.3864 50.0682C42.3561 49.0985 41.0682 48.6136 39.5227 48.6136C37.7652 48.6136 36.3939 49.1742 35.4091 50.2955C34.4242 51.4015 33.9318 52.8636 33.9318 54.6818V76H24.5455V54.2273C24.5455 52.5152 24.053 51.1515 23.0682 50.1364C22.0985 49.1212 20.8182 48.6136 19.2273 48.6136C18.1515 48.6136 17.1818 48.8864 16.3182 49.4318C15.4697 49.9621 14.7955 50.7121 14.2955 51.6818C13.7955 52.6364 13.5455 53.7576 13.5455 55.0455V76H3.86364ZM72.1932 76.6591C69.9659 76.6591 67.9811 76.2727 66.2386 75.5C64.4962 74.7121 63.1174 73.553 62.1023 72.0227C61.1023 70.4773 60.6023 68.553 60.6023 66.25C60.6023 64.3106 60.9583 62.6818 61.6705 61.3636C62.3826 60.0455 63.3523 58.9848 64.5795 58.1818C65.8068 57.3788 67.2008 56.7727 68.7614 56.3636C70.3371 55.9545 71.9886 55.6667 73.7159 55.5C75.7462 55.2879 77.3826 55.0909 78.625 54.9091C79.8674 54.7121 80.7689 54.4242 81.3295 54.0455C81.8902 53.6667 82.1705 53.1061 82.1705 52.3636V52.2273C82.1705 50.7879 81.7159 49.6742 80.8068 48.8864C79.9129 48.0985 78.6402 47.7045 76.9886 47.7045C75.2462 47.7045 73.8598 48.0909 72.8295 48.8636C71.7992 49.6212 71.1174 50.5758 70.7841 51.7273L61.8295 51C62.2841 48.8788 63.178 47.0455 64.5114 45.5C65.8447 43.9394 67.5644 42.7424 69.6705 41.9091C71.7917 41.0606 74.2462 40.6364 77.0341 40.6364C78.9735 40.6364 80.8295 40.8636 82.6023 41.3182C84.3902 41.7727 85.9735 42.4773 87.3523 43.4318C88.7462 44.3864 89.8447 45.6136 90.6477 47.1136C91.4508 48.5985 91.8523 50.3788 91.8523 52.4545V76H82.6705V71.1591H82.3977C81.8371 72.25 81.0871 73.2121 80.1477 74.0455C79.2083 74.8636 78.0795 75.5076 76.7614 75.9773C75.4432 76.4318 73.9205 76.6591 72.1932 76.6591ZM74.9659 69.9773C76.3902 69.9773 77.6477 69.697 78.7386 69.1364C79.8295 68.5606 80.6856 67.7879 81.3068 66.8182C81.928 65.8485 82.2386 64.75 82.2386 63.5227V59.8182C81.9356 60.0152 81.5189 60.197 80.9886 60.3636C80.4735 60.5152 79.8902 60.6591 79.2386 60.7955C78.5871 60.9167 77.9356 61.0303 77.2841 61.1364C76.6326 61.2273 76.0417 61.3106 75.5114 61.3864C74.375 61.553 73.3826 61.8182 72.5341 62.1818C71.6856 62.5455 71.0265 63.0379 70.5568 63.6591C70.0871 64.2652 69.8523 65.0227 69.8523 65.9318C69.8523 67.25 70.3295 68.2576 71.2841 68.9545C72.2538 69.6364 73.4811 69.9773 74.9659 69.9773ZM117.932 41.0909V48.3636H96.9091V41.0909H117.932ZM101.682 32.7273H111.364V65.2727C111.364 66.1667 111.5 66.8636 111.773 67.3636C112.045 67.8485 112.424 68.1894 112.909 68.3864C113.409 68.5833 113.985 68.6818 114.636 68.6818C115.091 68.6818 115.545 68.6439 116 68.5682C116.455 68.4773 116.803 68.4091 117.045 68.3636L118.568 75.5682C118.083 75.7197 117.402 75.8939 116.523 76.0909C115.644 76.303 114.576 76.4318 113.318 76.4773C110.985 76.5682 108.939 76.2576 107.182 75.5455C105.439 74.8333 104.083 73.7273 103.114 72.2273C102.144 70.7273 101.667 68.8333 101.682 66.5455V32.7273ZM139.636 76.6818C136.061 76.6818 132.985 75.9242 130.409 74.4091C127.848 72.8788 125.879 70.7576 124.5 68.0455C123.136 65.3333 122.455 62.2121 122.455 58.6818C122.455 55.1061 123.144 51.9697 124.523 49.2727C125.917 46.5606 127.894 44.447 130.455 42.9318C133.015 41.4015 136.061 40.6364 139.591 40.6364C142.636 40.6364 145.303 41.1894 147.591 42.2955C149.879 43.4015 151.689 44.9545 153.023 46.9545C154.356 48.9545 155.091 51.303 155.227 54H146.091C145.833 52.2576 145.152 50.8561 144.045 49.7955C142.955 48.7197 141.523 48.1818 139.75 48.1818C138.25 48.1818 136.939 48.5909 135.818 49.4091C134.712 50.2121 133.848 51.3864 133.227 52.9318C132.606 54.4773 132.295 56.3485 132.295 58.5455C132.295 60.7727 132.598 62.6667 133.205 64.2273C133.826 65.7879 134.697 66.9773 135.818 67.7955C136.939 68.6136 138.25 69.0227 139.75 69.0227C140.856 69.0227 141.848 68.7955 142.727 68.3409C143.621 67.8864 144.356 67.2273 144.932 66.3636C145.523 65.4848 145.909 64.4318 146.091 63.2045H155.227C155.076 65.8712 154.348 68.2197 153.045 70.25C151.758 72.2652 149.977 73.8409 147.705 74.9773C145.432 76.1136 142.742 76.6818 139.636 76.6818ZM171.108 55.8182V76H161.426V29.4545H170.835V47.25H171.244C172.032 45.1894 173.305 43.5758 175.062 42.4091C176.82 41.2273 179.025 40.6364 181.676 40.6364C184.1 40.6364 186.214 41.1667 188.017 42.2273C189.835 43.2727 191.244 44.7803 192.244 46.75C193.259 48.7045 193.759 51.0455 193.744 53.7727V76H184.062V55.5C184.078 53.3485 183.532 51.6742 182.426 50.4773C181.335 49.2803 179.805 48.6818 177.835 48.6818C176.517 48.6818 175.35 48.9621 174.335 49.5227C173.335 50.0833 172.547 50.9015 171.972 51.9773C171.411 53.0379 171.123 54.3182 171.108 55.8182ZM211.318 76.6591C209.091 76.6591 207.106 76.2727 205.364 75.5C203.621 74.7121 202.242 73.553 201.227 72.0227C200.227 70.4773 199.727 68.553 199.727 66.25C199.727 64.3106 200.083 62.6818 200.795 61.3636C201.508 60.0455 202.477 58.9848 203.705 58.1818C204.932 57.3788 206.326 56.7727 207.886 56.3636C209.462 55.9545 211.114 55.6667 212.841 55.5C214.871 55.2879 216.508 55.0909 217.75 54.9091C218.992 54.7121 219.894 54.4242 220.455 54.0455C221.015 53.6667 221.295 53.1061 221.295 52.3636V52.2273C221.295 50.7879 220.841 49.6742 219.932 48.8864C219.038 48.0985 217.765 47.7045 216.114 47.7045C214.371 47.7045 212.985 48.0909 211.955 48.8636C210.924 49.6212 210.242 50.5758 209.909 51.7273L200.955 51C201.409 48.8788 202.303 47.0455 203.636 45.5C204.97 43.9394 206.689 42.7424 208.795 41.9091C210.917 41.0606 213.371 40.6364 216.159 40.6364C218.098 40.6364 219.955 40.8636 221.727 41.3182C223.515 41.7727 225.098 42.4773 226.477 43.4318C227.871 44.3864 228.97 45.6136 229.773 47.1136C230.576 48.5985 230.977 50.3788 230.977 52.4545V76H221.795V71.1591H221.523C220.962 72.25 220.212 73.2121 219.273 74.0455C218.333 74.8636 217.205 75.5076 215.886 75.9773C214.568 76.4318 213.045 76.6591 211.318 76.6591ZM214.091 69.9773C215.515 69.9773 216.773 69.697 217.864 69.1364C218.955 68.5606 219.811 67.7879 220.432 66.8182C221.053 65.8485 221.364 64.75 221.364 63.5227V59.8182C221.061 60.0152 220.644 60.197 220.114 60.3636C219.598 60.5152 219.015 60.6591 218.364 60.7955C217.712 60.9167 217.061 61.0303 216.409 61.1364C215.758 61.2273 215.167 61.3106 214.636 61.3864C213.5 61.553 212.508 61.8182 211.659 62.1818C210.811 62.5455 210.152 63.0379 209.682 63.6591C209.212 64.2652 208.977 65.0227 208.977 65.9318C208.977 67.25 209.455 68.2576 210.409 68.9545C211.379 69.6364 212.606 69.9773 214.091 69.9773Z" fill="url(#paint0_linear_2682_252)"/>
<mask id="mask0_2682_252" style="mask-type:alpha" maskUnits="userSpaceOnUse" x="73" y="13" width="25" height="25">
<path d="M91.0287 35.52C85.3679 38.6917 78.2077 36.6738 75.036 31.0129C71.8643 25.3521 73.8822 18.1919 79.5431 15.0202C85.2039 11.8485 92.3641 13.8664 95.5358 19.5273C98.7075 25.1881 96.6896 32.3483 91.0287 35.52Z" fill="#FF0000"/>
</mask>
<g mask="url(#mask0_2682_252)">
<path d="M97.685 47.4009C92.0241 50.5725 84.8639 48.5546 81.6922 42.8938C78.5206 37.2329 80.5384 30.0727 86.1993 26.901C91.8602 23.7294 99.0204 25.7472 102.192 31.4081C105.364 37.069 103.346 44.2292 97.685 47.4009Z" fill="#EF94E9"/>
</g>
<mask id="mask1_2682_252" style="mask-type:alpha" maskUnits="userSpaceOnUse" x="56" y="13" width="24" height="24">
<path d="M79.8157 26.5866C78.9167 33.0128 72.9784 37.4936 66.5522 36.5946C60.1259 35.6956 55.6452 29.7573 56.5441 23.3311C57.4431 16.9048 63.3814 12.4241 69.8076 13.3231C76.2339 14.222 80.7147 20.1603 79.8157 26.5866Z" fill="#FF0000"/>
</mask>
<g mask="url(#mask1_2682_252)">
<path d="M93.304 28.4733C92.405 34.8995 86.4667 39.3803 80.0404 38.4813C73.6142 37.5823 69.1334 31.6441 70.0324 25.2178C70.9314 18.7915 76.8697 14.3108 83.2959 15.2098C89.7222 16.1088 94.2029 22.047 93.304 28.4733Z" fill="#EF94E9"/>
</g>
<mask id="mask2_2682_252" style="mask-type:alpha" maskUnits="userSpaceOnUse" x="44" y="23" width="24" height="25">
<path d="M64.3598 27.1021C69.0459 31.5904 69.2063 39.0278 64.718 43.7139C60.2296 48.4001 52.7923 48.5604 48.1061 44.0721C43.42 39.5838 43.2596 32.1464 47.7479 27.4603C52.2362 22.7741 59.6736 22.6138 64.3598 27.1021Z" fill="#FF0000"/>
</mask>
<g mask="url(#mask2_2682_252)">
<path d="M73.1605 16.7837C77.8467 21.272 78.0071 28.7094 73.5187 33.3956C69.0304 38.0817 61.593 38.2421 56.9069 33.7538C52.2207 29.2655 52.0604 21.8281 56.5487 17.1419C61.037 12.4558 68.4744 12.2954 73.1605 16.7837Z" fill="#EF94E9"/>
</g>
<defs>
<linearGradient id="paint0_linear_2682_252" x1="1.5595e-07" y1="12.6835" x2="234.987" y2="13.2764" gradientUnits="userSpaceOnUse">
<stop offset="0.39" stop-color="#ABE895"/>
</linearGradient>
</defs>
</svg>
