<svg width="352" height="149" viewBox="0 0 352 149" fill="none" xmlns="http://www.w3.org/2000/svg">
<path d="M5.79545 126V73.6364H19.6364V82.875H20.25C21.3409 79.8068 23.1591 77.3864 25.7045 75.6136C28.25 73.8409 31.2955 72.9545 34.8409 72.9545C38.4318 72.9545 41.4886 73.8523 44.0114 75.6477C46.5341 77.4205 48.2159 79.8295 49.0568 82.875H49.6023C50.6705 79.875 52.6023 77.4773 55.3977 75.6818C58.2159 73.8636 61.5455 72.9545 65.3864 72.9545C70.2727 72.9545 74.2386 74.5114 77.2841 77.625C80.3523 80.7159 81.8864 85.1023 81.8864 90.7841V126H67.3977V93.6477C67.3977 90.7386 66.625 88.5568 65.0795 87.1023C63.5341 85.6477 61.6023 84.9205 59.2841 84.9205C56.6477 84.9205 54.5909 85.7614 53.1136 87.4432C51.6364 89.1023 50.8977 91.2955 50.8977 94.0227V126H36.8182V93.3409C36.8182 90.7727 36.0795 88.7273 34.6023 87.2045C33.1477 85.6818 31.2273 84.9205 28.8409 84.9205C27.2273 84.9205 25.7727 85.3295 24.4773 86.1477C23.2045 86.9432 22.1932 88.0682 21.4432 89.5227C20.6932 90.9545 20.3182 92.6364 20.3182 94.5682V126H5.79545ZM108.29 126.989C104.949 126.989 101.972 126.409 99.358 125.25C96.7443 124.068 94.6761 122.33 93.1534 120.034C91.6534 117.716 90.9034 114.83 90.9034 111.375C90.9034 108.466 91.4375 106.023 92.5057 104.045C93.5739 102.068 95.0284 100.477 96.8693 99.2727C98.7102 98.0682 100.801 97.1591 103.142 96.5455C105.506 95.9318 107.983 95.5 110.574 95.25C113.619 94.9318 116.074 94.6364 117.938 94.3636C119.801 94.0682 121.153 93.6364 121.994 93.0682C122.835 92.5 123.256 91.6591 123.256 90.5455V90.3409C123.256 88.1818 122.574 86.5114 121.21 85.3295C119.869 84.1477 117.96 83.5568 115.483 83.5568C112.869 83.5568 110.79 84.1364 109.244 85.2955C107.699 86.4318 106.676 87.8636 106.176 89.5909L92.7443 88.5C93.4261 85.3182 94.767 82.5682 96.767 80.25C98.767 77.9091 101.347 76.1136 104.506 74.8636C107.688 73.5909 111.369 72.9545 115.551 72.9545C118.46 72.9545 121.244 73.2955 123.903 73.9773C126.585 74.6591 128.96 75.7159 131.028 77.1477C133.119 78.5795 134.767 80.4205 135.972 82.6705C137.176 84.8977 137.778 87.5682 137.778 90.6818V126H124.006V118.739H123.597C122.756 120.375 121.631 121.818 120.222 123.068C118.812 124.295 117.119 125.261 115.142 125.966C113.165 126.648 110.881 126.989 108.29 126.989ZM112.449 116.966C114.585 116.966 116.472 116.545 118.108 115.705C119.744 114.841 121.028 113.682 121.96 112.227C122.892 110.773 123.358 109.125 123.358 107.284V101.727C122.903 102.023 122.278 102.295 121.483 102.545C120.71 102.773 119.835 102.989 118.858 103.193C117.881 103.375 116.903 103.545 115.926 103.705C114.949 103.841 114.062 103.966 113.267 104.08C111.563 104.33 110.074 104.727 108.801 105.273C107.528 105.818 106.54 106.557 105.835 107.489C105.131 108.398 104.778 109.534 104.778 110.898C104.778 112.875 105.494 114.386 106.926 115.432C108.381 116.455 110.222 116.966 112.449 116.966ZM176.898 73.6364V84.5455H145.364V73.6364H176.898ZM152.523 61.0909H167.045V109.909C167.045 111.25 167.25 112.295 167.659 113.045C168.068 113.773 168.636 114.284 169.364 114.58C170.114 114.875 170.977 115.023 171.955 115.023C172.636 115.023 173.318 114.966 174 114.852C174.682 114.716 175.205 114.614 175.568 114.545L177.852 125.352C177.125 125.58 176.102 125.841 174.784 126.136C173.466 126.455 171.864 126.648 169.977 126.716C166.477 126.852 163.409 126.386 160.773 125.318C158.159 124.25 156.125 122.591 154.67 120.341C153.216 118.091 152.5 115.25 152.523 111.818V61.0909ZM209.455 127.023C204.091 127.023 199.477 125.886 195.614 123.614C191.773 121.318 188.818 118.136 186.75 114.068C184.705 110 183.682 105.318 183.682 100.023C183.682 94.6591 184.716 89.9545 186.784 85.9091C188.875 81.8409 191.841 78.6705 195.682 76.3977C199.523 74.1023 204.091 72.9545 209.386 72.9545C213.955 72.9545 217.955 73.7841 221.386 75.4432C224.818 77.1023 227.534 79.4318 229.534 82.4318C231.534 85.4318 232.636 88.9545 232.841 93H219.136C218.75 90.3864 217.727 88.2841 216.068 86.6932C214.432 85.0795 212.284 84.2727 209.625 84.2727C207.375 84.2727 205.409 84.8864 203.727 86.1136C202.068 87.3182 200.773 89.0795 199.841 91.3977C198.909 93.7159 198.443 96.5227 198.443 99.8182C198.443 103.159 198.898 106 199.807 108.341C200.739 110.682 202.045 112.466 203.727 113.693C205.409 114.92 207.375 115.534 209.625 115.534C211.284 115.534 212.773 115.193 214.091 114.511C215.432 113.83 216.534 112.841 217.398 111.545C218.284 110.227 218.864 108.648 219.136 106.807H232.841C232.614 110.807 231.523 114.33 229.568 117.375C227.636 120.398 224.966 122.761 221.557 124.466C218.148 126.17 214.114 127.023 209.455 127.023ZM256.662 95.7273V126H242.139V56.1818H256.253V82.875H256.866C258.048 79.7841 259.957 77.3636 262.594 75.6136C265.23 73.8409 268.537 72.9545 272.514 72.9545C276.151 72.9545 279.321 73.75 282.026 75.3409C284.753 76.9091 286.866 79.1705 288.366 82.125C289.889 85.0568 290.639 88.5682 290.616 92.6591V126H276.094V95.25C276.116 92.0227 275.298 89.5114 273.639 87.7159C272.003 85.9205 269.707 85.0227 266.753 85.0227C264.776 85.0227 263.026 85.4432 261.503 86.2841C260.003 87.125 258.821 88.3523 257.957 89.9659C257.116 91.5568 256.685 93.4773 256.662 95.7273ZM316.977 126.989C313.636 126.989 310.659 126.409 308.045 125.25C305.432 124.068 303.364 122.33 301.841 120.034C300.341 117.716 299.591 114.83 299.591 111.375C299.591 108.466 300.125 106.023 301.193 104.045C302.261 102.068 303.716 100.477 305.557 99.2727C307.398 98.0682 309.489 97.1591 311.83 96.5455C314.193 95.9318 316.67 95.5 319.261 95.25C322.307 94.9318 324.761 94.6364 326.625 94.3636C328.489 94.0682 329.841 93.6364 330.682 93.0682C331.523 92.5 331.943 91.6591 331.943 90.5455V90.3409C331.943 88.1818 331.261 86.5114 329.898 85.3295C328.557 84.1477 326.648 83.5568 324.17 83.5568C321.557 83.5568 319.477 84.1364 317.932 85.2955C316.386 86.4318 315.364 87.8636 314.864 89.5909L301.432 88.5C302.114 85.3182 303.455 82.5682 305.455 80.25C307.455 77.9091 310.034 76.1136 313.193 74.8636C316.375 73.5909 320.057 72.9545 324.239 72.9545C327.148 72.9545 329.932 73.2955 332.591 73.9773C335.273 74.6591 337.648 75.7159 339.716 77.1477C341.807 78.5795 343.455 80.4205 344.659 82.6705C345.864 84.8977 346.466 87.5682 346.466 90.6818V126H332.693V118.739H332.284C331.443 120.375 330.318 121.818 328.909 123.068C327.5 124.295 325.807 125.261 323.83 125.966C321.852 126.648 319.568 126.989 316.977 126.989ZM321.136 116.966C323.273 116.966 325.159 116.545 326.795 115.705C328.432 114.841 329.716 113.682 330.648 112.227C331.58 110.773 332.045 109.125 332.045 107.284V101.727C331.591 102.023 330.966 102.295 330.17 102.545C329.398 102.773 328.523 102.989 327.545 103.193C326.568 103.375 325.591 103.545 324.614 103.705C323.636 103.841 322.75 103.966 321.955 104.08C320.25 104.33 318.761 104.727 317.489 105.273C316.216 105.818 315.227 106.557 314.523 107.489C313.818 108.398 313.466 109.534 313.466 110.898C313.466 112.875 314.182 114.386 315.614 115.432C317.068 116.455 318.909 116.966 321.136 116.966Z" fill="url(#paint0_linear_2682_252)"/>
<mask id="mask0_2682_252" style="mask-type:alpha" maskUnits="userSpaceOnUse" x="110" y="25" width="46" height="46">
<circle cx="133.11" cy="48.202" r="22.4103" transform="rotate(60.7389 133.11 48.202)" fill="#FF0000"/>
</mask>
<g mask="url(#mask0_2682_252)">
<circle cx="145.806" cy="70.8641" r="22.4103" transform="rotate(60.7389 145.806 70.8641)" fill="#EF94E9"/>
</g>
<mask id="mask1_2682_252" style="mask-type:alpha" maskUnits="userSpaceOnUse" x="78" y="25" width="45" height="46">
<circle cx="100.476" cy="47.6075" r="22.4103" transform="rotate(7.9635 100.476 47.6075)" fill="#FF0000"/>
</mask>
<g mask="url(#mask1_2682_252)">
<circle cx="126.203" cy="51.2072" r="22.4103" transform="rotate(7.9635 126.203 51.2072)" fill="#EF94E9"/>
</g>
<mask id="mask2_2682_252" style="mask-type:alpha" maskUnits="userSpaceOnUse" x="55" y="45" width="46" height="46">
<circle cx="77.6895" cy="67.8793" r="22.4103" transform="rotate(-46.2353 77.6895 67.8793)" fill="#FF0000"/>
</mask>
<g mask="url(#mask2_2682_252)">
<circle cx="94.4746" cy="48.1976" r="22.4103" transform="rotate(-46.2353 94.4746 48.1976)" fill="#EF94E9"/>
</g>
<defs>
<linearGradient id="paint0_linear_2682_252" x1="2.33594e-07" y1="31.0166" x2="351.98" y2="31.8997" gradientUnits="userSpaceOnUse">
<stop offset="0.39" stop-color="#ABE895"/>
</linearGradient>
</defs>
</svg>
